<svg width="138" height="45" viewBox="0 0 138 45" fill="none" xmlns="http://www.w3.org/2000/svg">
<path d="M66.6707 12.4587C66.0159 11.7511 65.2619 11.1381 64.4313 10.6383C64.4734 10.5623 64.5141 10.4882 64.5538 10.4156C65.1035 9.41276 65.4863 8.71448 67.363 7.81578C69.1666 6.95209 69.5489 5.81928 70.0702 4.27434C70.1306 4.0954 70.1929 3.91093 70.2594 3.7207C71.0444 4.86352 71.6334 7.14914 71.6334 8.95859C71.56 9.00069 71.4866 9.04268 71.4134 9.08462L71.4117 9.08557C69.7851 10.0169 68.2026 10.923 66.6707 12.4587Z" fill="white"/>
<path fill-rule="evenodd" clip-rule="evenodd" d="M62.0636 26.1952C61.9166 26.066 61.773 25.931 61.6328 25.7901C61.5336 25.6289 61.4748 25.4418 61.4641 25.2403C61.4497 24.9678 61.6659 24.4629 61.8668 24.3C62.0429 24.1573 62.3342 24.0389 62.5467 24.0236L62.7122 24.0117L64.0361 20.9118C64.7643 19.2069 65.3548 17.8096 65.3482 17.8069C65.3417 17.8041 64.1526 18.5939 62.7057 19.562C61.0698 20.6567 60.0541 21.3585 60.0195 21.4181C59.9951 21.4601 59.8932 22.0147 59.766 22.7876C59.4736 21.8364 59.2723 20.7992 59.076 19.7869C58.903 18.8948 58.6849 18.0625 58.3841 17.3237C58.9656 16.6144 59.677 16.0551 60.5439 15.6204C61.7023 15.0396 63.2248 14.824 64.5012 15.0599L64.7798 15.1135L64.7648 15.2096C64.6496 15.938 64.9472 16.6764 65.5355 17.1233C65.6666 17.2228 65.812 17.3078 65.9705 17.375C66.1352 17.4449 66.3039 17.4913 66.473 17.5158C67.1964 17.6204 67.9472 17.3386 68.3905 16.7583L68.4581 16.6745C68.4852 16.6972 68.576 16.7643 68.6598 16.8236C69.0284 17.0845 69.4425 17.4733 69.7872 17.8819C71.2697 19.6396 71.6892 21.9827 70.9219 24.2184C70.7306 24.7756 70.7238 24.8742 70.8658 25.0386C70.9251 25.1074 70.9696 25.1278 71.0884 25.1409C71.3794 25.1728 71.513 24.9876 71.7496 24.2246C71.9369 23.6202 72.0434 23 72.0713 22.3802C75.0826 25.5061 78.4537 25.4769 80.7148 24.9251C76.7607 27.7342 69.9447 29.8121 64.872 27.875C64.6907 27.796 64.6751 27.7772 64.7084 27.7364C65.1244 27.2265 67.1389 24.5257 67.1613 24.4477C67.1803 24.3818 66.9851 23.1706 66.6483 21.2644C66.3493 19.5721 66.0972 18.1673 66.0881 18.1426C66.0783 18.116 65.5328 19.3591 64.7458 21.2019L63.42 24.306L63.5562 24.4839C64.0715 25.1568 63.6949 26.1595 62.8664 26.3201C62.5615 26.3792 62.392 26.3568 62.1128 26.2206C62.0961 26.2125 62.0797 26.204 62.0636 26.1952ZM62.2687 25.0533C62.3283 24.9178 62.4453 24.8204 62.5616 24.8097C62.6558 24.8011 62.8309 24.8718 62.9329 24.9597C63.0135 25.0292 63.0311 25.2167 62.9703 25.3589C62.9031 25.5163 62.6398 25.6148 62.4743 25.5446C62.304 25.4723 62.1969 25.2166 62.2687 25.0533Z" fill="white"/>
<path d="M72.0332 21.2289C77.6354 16.7528 77.4293 11.5305 76.577 6.50084C75.5193 7.68102 73.9657 8.57242 72.3394 9.50545L72.3267 9.51277C72.2376 9.56384 72.1479 9.61512 72.0578 9.66667L72.0569 9.66721C70.2537 10.6987 68.2665 11.8355 66.6809 13.509C66.8244 13.5032 66.9697 13.5126 67.1144 13.5383C67.2622 13.5645 67.4094 13.6077 67.5534 13.6688C67.6967 13.7295 67.8292 13.8048 67.9501 13.8922C68.55 14.3257 68.8626 15.0564 68.7665 15.784L68.7394 15.9413L72.2462 17.429C72.4976 17.1913 72.8761 17.111 73.2153 17.2549C73.6711 17.4482 73.8833 17.9731 73.6894 18.4273C73.4954 18.8815 72.9686 19.0929 72.5129 18.8996C72.195 18.7647 71.9956 18.4686 71.9698 18.1477L71.2959 17.8618C70.8816 17.686 70.5465 17.5505 70.5513 17.5606C70.5561 17.5706 70.6515 17.7085 70.7633 17.8668C71.4692 18.8662 71.8988 20.0275 72.0332 21.2289Z" fill="white"/>
<path fill-rule="evenodd" clip-rule="evenodd" d="M66.5064 13.5236L66.0829 13.0883C65.3741 12.3032 64.5299 11.6464 63.5889 11.148C61.1973 9.92539 58.6297 10.3994 56.8878 12.3859C56.8366 12.4441 56.7703 12.4877 56.6959 12.512C56.6214 12.5363 56.5416 12.5403 56.465 12.5237C55.9832 12.4194 54.6989 12.6251 53.9135 14.0536C55.9861 14.1684 57.2277 15.1137 58.0189 16.5519C58.9772 15.5048 60.2304 14.7528 61.6552 14.396C61.8978 14.3352 62.2198 14.2719 62.3707 14.2552C62.5216 14.2386 62.6477 14.2187 62.651 14.211C62.6543 14.2033 62.328 14.0575 61.926 13.887L61.2461 13.5986C60.9961 13.8025 60.6438 13.8646 60.3259 13.7297C59.8701 13.5364 59.6578 13.0115 59.8518 12.5573C60.0458 12.1031 60.5725 11.8917 61.0283 12.085C61.3675 12.2289 61.5718 12.5564 61.5742 12.9018L65.0879 14.3923L65.1516 14.3039C65.483 13.8681 65.9758 13.5915 66.5064 13.5236Z" fill="white"/>
<path d="M82.4073 1.54258C81.4269 0.56436 80.1071 0 78.6364 0H73.5458V2.03169H78.5987C79.5037 2.03169 80.3333 2.40793 80.9367 3.00992C81.54 3.6119 81.9171 4.43963 81.9171 5.3426V10.7228H83.9534V5.30498C83.9534 3.83765 83.35 2.52081 82.4073 1.54258Z" fill="white"/>
<path d="M54.3897 29.4225C53.7864 28.8206 53.4093 27.9928 53.4093 27.0899V21.7472H51.373V27.1275C51.373 28.5948 51.9764 29.9117 52.9191 30.8899C53.9372 31.8305 55.257 32.4325 56.7277 32.4325H61.7806V30.4008H56.7277C55.8227 30.4008 54.9931 30.0245 54.3897 29.4225Z" fill="white"/>
<path d="M81.8794 27.1275C81.8794 28.0305 81.5023 28.8582 80.899 29.4602C80.2956 30.0621 79.466 30.4384 78.561 30.4384H73.5458V32.4701H78.5987C80.0694 32.4701 81.3892 31.8681 82.3696 30.9275C83.35 29.9493 83.9157 28.6324 83.9157 27.1651V21.7472H81.8794V27.1275Z" fill="white"/>
<path d="M52.9568 1.54258C51.9764 2.52081 51.4108 3.83765 51.4108 5.30498V10.6852H53.447V5.30498C53.447 4.40201 53.8241 3.57428 54.4275 2.97229C55.0308 2.37031 55.8604 1.99407 56.7654 1.99407H61.8184V0H56.7277C55.257 0 53.9372 0.601984 52.9568 1.54258Z" fill="white"/>
<path d="M5.09564 23.8242C5.0846 23.8903 5.06526 23.9371 5.03764 23.9646C5.01002 23.9921 4.73936 24.0527 4.22565 24.1463C3.71195 24.2399 3.19272 24.2866 2.66796 24.2866C1.80626 24.2866 1.14617 24.0086 0.687705 23.4526C0.229235 22.8966 0 22.1397 0 21.1818C0 19.4807 0.204378 17.5044 0.613134 15.2529C0.82856 14.0418 1.0937 13.1912 1.40855 12.7013C1.73998 12.1893 2.13768 11.8315 2.60168 11.6278C3.18167 11.3746 3.80033 11.248 4.45765 11.248C5.1205 11.248 5.5624 11.2672 5.78335 11.3058C6.00982 11.3388 6.13687 11.3581 6.16448 11.3636C6.23629 11.3856 6.2722 11.4544 6.2722 11.57L6.08163 13.1059C6.05953 13.249 6.0043 13.3206 5.91592 13.3206C5.82754 13.3206 5.62316 13.2986 5.30278 13.2545C4.98241 13.205 4.72279 13.1802 4.52394 13.1802C3.99366 13.1802 3.59043 13.3151 3.31424 13.5848C3.03805 13.8491 2.83091 14.3611 2.69282 15.1208C2.56025 15.8749 2.43044 16.8906 2.3034 18.1678C2.17635 19.4395 2.11283 20.4139 2.11283 21.091C2.11283 21.8892 2.46635 22.2883 3.17338 22.2883C3.37776 22.2883 3.73404 22.2553 4.24223 22.1892C4.75041 22.1177 5.04041 22.0819 5.11221 22.0819C5.22821 22.0819 5.28621 22.1507 5.28621 22.2883L5.09564 23.8242Z" fill="white"/>
<path d="M13.484 11.5287L12.2991 22.0241L15.4725 21.9002C15.6161 21.9057 15.688 21.9773 15.688 22.1149L15.4725 23.8242C15.456 23.9674 15.3841 24.0417 15.2571 24.0472L10.1532 24.2288C10.0372 24.2288 9.97917 24.1765 9.97917 24.072L11.396 11.5783C11.4071 11.5122 11.4236 11.4654 11.4457 11.4379C11.4733 11.4104 11.5258 11.3938 11.6032 11.3883L13.2686 11.3305C13.4122 11.336 13.484 11.4021 13.484 11.5287Z" fill="white"/>
<path d="M23.8112 11.5287L22.3943 23.9646C22.3777 24.0967 22.3059 24.1655 22.1789 24.171L20.4721 24.2288C20.3505 24.2288 20.2898 24.1765 20.2898 24.072L21.7232 11.5783C21.7453 11.4627 21.8171 11.3993 21.9386 11.3883L23.5957 11.3305C23.7393 11.336 23.8112 11.4021 23.8112 11.5287Z" fill="white"/>
<path d="M35.7872 11.4957L34.362 23.9316C34.3399 24.0582 34.2681 24.127 34.1466 24.138L32.5061 24.2288C32.4122 24.2288 32.3569 24.1765 32.3403 24.072L30.6004 15.2529L29.9872 23.9646C29.9817 24.0967 29.9099 24.1655 29.7718 24.171L28.065 24.2288C27.9435 24.2288 27.8827 24.1765 27.8827 24.072L29.3161 11.5783C29.3382 11.4627 29.41 11.3993 29.5315 11.3883L31.2135 11.2975C31.2908 11.2975 31.3405 11.314 31.3626 11.3471C31.3903 11.3746 31.4124 11.4241 31.4289 11.4957L33.1109 19.8276L33.6909 11.5783C33.6964 11.4572 33.771 11.3938 33.9146 11.3883L35.5634 11.2975C35.7126 11.2975 35.7872 11.3636 35.7872 11.4957Z" fill="white"/>
<path d="M40.6293 11.4214L45.9983 11.2314C46.1254 11.237 46.1889 11.3058 46.1889 11.4379L45.9735 13.1307C45.9624 13.2133 45.9431 13.2711 45.9155 13.3041C45.8934 13.3371 45.8437 13.3564 45.7663 13.3619L44.1589 13.4197L42.9492 23.9646C42.9327 24.0967 42.8608 24.1655 42.7338 24.171L41.0104 24.2288C40.8999 24.2288 40.8447 24.1765 40.8447 24.072L42.0627 13.4858L40.4138 13.5353C40.2757 13.5298 40.2067 13.4665 40.2067 13.3454L40.4138 11.6278C40.4194 11.4957 40.4912 11.4269 40.6293 11.4214Z" fill="white"/>
<path d="M89.3447 24.3527C89.2066 24.3527 89.1375 24.2867 89.1375 24.1545L89.3447 22.4287C89.3667 22.3076 89.4386 22.2415 89.5601 22.2305C90.4218 22.1424 90.9907 22.0076 91.2669 21.8259C91.5431 21.6387 91.6812 21.2699 91.6812 20.7194C91.6812 20.1689 91.5403 19.4532 91.2586 18.5724C90.9769 17.6861 90.7946 17.0971 90.7118 16.8053C90.4466 15.8694 90.3141 15.1042 90.3141 14.5097C90.3141 13.9097 90.4107 13.3977 90.6041 12.9738C90.7974 12.5499 91.0736 12.2113 91.4326 11.9581C92.1286 11.4737 93.0649 11.2314 94.2414 11.2314C94.3906 11.2314 94.4651 11.3003 94.4651 11.4379L94.2414 13.1472C94.2193 13.2848 94.1503 13.3591 94.0343 13.3702C92.9627 13.4417 92.4269 13.7583 92.4269 14.3198C92.4269 14.8373 92.6534 15.8557 93.1063 17.3751C93.5648 18.889 93.794 19.9735 93.794 20.6286C93.794 23.1113 92.3109 24.3527 89.3447 24.3527Z" fill="white"/>
<path d="M105.521 16.5245C105.046 18.3577 103.561 19.2771 101.064 19.2826L100.542 23.9646C100.525 24.0967 100.456 24.1656 100.335 24.1711L98.5947 24.2619C98.4732 24.2509 98.4124 24.1986 98.4124 24.105L99.8458 11.6113C99.8679 11.4957 99.9397 11.4324 100.061 11.4214C101.094 11.3278 102.08 11.281 103.019 11.281C104.886 11.281 105.82 12.1728 105.82 13.9564C105.82 14.9308 105.72 15.7869 105.521 16.5245ZM101.743 13.205L101.271 17.3751C102.227 17.3751 102.87 17.1769 103.201 16.7805C103.533 16.3842 103.699 15.6135 103.699 14.4684C103.699 14.028 103.58 13.7032 103.342 13.494C103.105 13.2848 102.801 13.1802 102.431 13.1802C102.061 13.1802 101.832 13.1885 101.743 13.205Z" fill="white"/>
<path d="M115.07 11.5535L116.039 23.9894C116.039 24.116 115.967 24.1848 115.824 24.1958L114.092 24.2619C113.976 24.2619 113.918 24.2096 113.918 24.105L113.794 21.38L111.913 21.4543L111.292 23.9976C111.275 24.0747 111.253 24.127 111.225 24.1545C111.198 24.1821 111.148 24.1986 111.076 24.2041L109.361 24.2619C109.251 24.2619 109.195 24.2096 109.195 24.105L112.833 11.6113C112.871 11.4902 112.946 11.4269 113.056 11.4214L114.879 11.3553C114.995 11.3608 115.059 11.4269 115.07 11.5535ZM113.504 14.9556L112.344 19.6955L113.719 19.6459L113.504 14.9556Z" fill="white"/>
<path d="M126.151 23.8573C126.14 23.9233 126.121 23.9701 126.093 23.9976C126.065 24.0252 125.795 24.0857 125.281 24.1793C124.767 24.2729 124.248 24.3197 123.723 24.3197C122.862 24.3197 122.201 24.0417 121.743 23.4857C121.284 22.9297 121.055 22.1727 121.055 21.2148C121.055 19.5138 121.26 17.5375 121.668 15.2859C121.884 14.0748 122.149 13.2243 122.464 12.7343C122.795 12.2224 123.193 11.8645 123.657 11.6608C124.237 11.4076 124.856 11.281 125.513 11.281C126.176 11.281 126.618 11.3003 126.839 11.3388C127.065 11.3718 127.192 11.3911 127.22 11.3966C127.292 11.4186 127.327 11.4874 127.327 11.603L127.137 13.1389C127.115 13.2821 127.06 13.3536 126.971 13.3536C126.883 13.3536 126.678 13.3316 126.358 13.2876C126.038 13.238 125.778 13.2133 125.579 13.2133C125.049 13.2133 124.646 13.3481 124.369 13.6179C124.093 13.8821 123.886 14.3941 123.748 15.1538C123.616 15.908 123.486 16.9237 123.359 18.2008C123.232 19.4725 123.168 20.4469 123.168 21.124C123.168 21.9222 123.522 22.3214 124.229 22.3214C124.433 22.3214 124.789 22.2883 125.297 22.2223C125.806 22.1507 126.096 22.1149 126.167 22.1149C126.283 22.1149 126.341 22.1837 126.341 22.3214L126.151 23.8573Z" fill="white"/>
<path d="M136.321 18.5807L133.744 18.6798L133.354 22.0654L136.528 21.958C136.671 21.9635 136.743 22.0351 136.743 22.1727L136.528 23.882C136.517 23.9976 136.445 24.0692 136.312 24.0967L131.217 24.2619C131.095 24.2619 131.034 24.2096 131.034 24.105L132.468 11.6113C132.49 11.4957 132.562 11.4324 132.683 11.4214L137.224 11.2645C137.362 11.281 137.431 11.3553 137.431 11.4874L137.224 13.1967C137.207 13.3344 137.135 13.4087 137.008 13.4197L134.34 13.494L133.984 16.5658L136.536 16.475C136.68 16.4805 136.751 16.5521 136.751 16.6897L136.536 18.3742C136.514 18.5009 136.442 18.5697 136.321 18.5807Z" fill="white"/>
<path d="M22.8543 43.4209C22.8918 43.4209 22.9246 43.4361 22.9527 43.4664L23.2234 43.7572C23.0171 43.9954 22.7664 44.1811 22.4711 44.3142C22.1782 44.4473 21.8232 44.5139 21.4061 44.5139C21.0452 44.5139 20.7172 44.452 20.4219 44.3282C20.1266 44.2021 19.8747 44.0269 19.6662 43.8027C19.4576 43.5762 19.2959 43.3053 19.1811 42.99C19.0663 42.6747 19.0089 42.3279 19.0089 41.9496C19.0089 41.5713 19.0686 41.2245 19.1881 40.9092C19.3077 40.5939 19.4752 40.323 19.6908 40.0965C19.9087 39.8699 20.1688 39.6948 20.4711 39.571C20.7734 39.4449 21.1073 39.3818 21.4729 39.3818C21.8314 39.3818 22.1478 39.4391 22.4219 39.5535C22.6961 39.6679 22.9375 39.8232 23.146 40.0194L22.9211 40.3312C22.907 40.3545 22.8883 40.3744 22.8648 40.3907C22.8437 40.4047 22.8144 40.4117 22.7769 40.4117C22.7348 40.4117 22.6832 40.3896 22.6223 40.3452C22.5614 40.2985 22.4817 40.2471 22.3833 40.1911C22.2848 40.135 22.1618 40.0848 22.0142 40.0404C21.8666 39.9937 21.685 39.9704 21.4694 39.9704C21.2093 39.9704 20.9714 40.0159 20.7558 40.107C20.5402 40.1957 20.3539 40.3253 20.1969 40.4958C20.0423 40.6663 19.9216 40.8742 19.8349 41.1194C19.7482 41.3646 19.7048 41.6413 19.7048 41.9496C19.7048 42.2625 19.7494 42.5416 19.8384 42.7868C19.9298 43.0321 20.0528 43.2399 20.2075 43.4104C20.3645 43.5785 20.5484 43.707 20.7593 43.7957C20.9726 43.8845 21.2022 43.9288 21.4483 43.9288C21.5983 43.9288 21.733 43.9207 21.8525 43.9043C21.9744 43.8856 22.0857 43.8576 22.1864 43.8203C22.2895 43.7829 22.3844 43.7362 22.4711 43.6801C22.5602 43.6217 22.6481 43.5529 22.7348 43.4734C22.7746 43.4384 22.8144 43.4209 22.8543 43.4209Z" fill="white"/>
<path d="M28.0808 41.869C28.2777 41.869 28.4511 41.8457 28.6011 41.799C28.7534 41.7499 28.8799 41.6822 28.9807 41.5958C29.0838 41.507 29.1611 41.402 29.2127 41.2805C29.2642 41.1591 29.29 41.0248 29.29 40.8777C29.29 40.5787 29.1916 40.3534 28.9947 40.2016C28.7979 40.0498 28.5026 39.9739 28.109 39.9739H27.3638V41.869H28.0808ZM30.4078 44.4578H29.8032C29.679 44.4578 29.5876 44.4099 29.529 44.3142L28.2214 42.5206C28.1816 42.4646 28.1383 42.4249 28.0914 42.4015C28.0469 42.3758 27.9766 42.363 27.8805 42.363H27.3638V44.4578H26.6854V39.4379H28.109C28.4277 39.4379 28.703 39.4706 28.935 39.536C29.167 39.599 29.358 39.6913 29.5079 39.8127C29.6602 39.9342 29.7727 40.0813 29.8454 40.2541C29.918 40.4246 29.9543 40.6161 29.9543 40.8286C29.9543 41.0061 29.9262 41.1719 29.87 41.3261C29.8137 41.4802 29.7317 41.6191 29.6239 41.7429C29.5185 41.8644 29.3884 41.9683 29.2338 42.0547C29.0814 42.1411 28.908 42.2065 28.7135 42.2509C28.8002 42.2999 28.8752 42.3711 28.9385 42.4646L30.4078 44.4578Z" fill="white"/>
<path d="M36.8715 43.9043L36.868 44.4578H33.7642V39.4379H36.868V39.9914H34.4462V41.6588H36.4075V42.1913H34.4462V43.9043H36.8715Z" fill="white"/>
<path d="M43.1679 42.5942L42.377 40.5519C42.3536 40.4911 42.329 40.4211 42.3032 40.3417C42.2774 40.2599 42.2528 40.1735 42.2294 40.0825C42.1802 40.2716 42.1298 40.4293 42.0782 40.5554L41.2874 42.5942H43.1679ZM44.5879 44.4578H44.0607C43.9998 44.4578 43.9506 44.4426 43.9131 44.4123C43.8756 44.3819 43.8474 44.3434 43.8287 44.2967L43.3577 43.0846H41.0976L40.6265 44.2967C40.6125 44.3387 40.5855 44.3761 40.5457 44.4088C40.5059 44.4415 40.4567 44.4578 40.3981 44.4578H39.8708L41.8849 39.4379H42.5738L44.5879 44.4578Z" fill="white"/>
<path d="M50.8337 40.0089H49.2027V44.4578H48.5243V40.0089H46.8899V39.4379H50.8337V40.0089Z" fill="white"/>
<path d="M54.9344 44.4578H54.2525V39.4379H54.9344V44.4578Z" fill="white"/>
<path d="M62.9892 39.4379L60.9364 44.4578H60.3248L58.2721 39.4379H58.8169C58.8778 39.4379 58.927 39.4531 58.9645 39.4834C59.002 39.5138 59.0301 39.5523 59.0489 39.599L60.4689 43.1407C60.4994 43.2201 60.5287 43.3065 60.5568 43.3999C60.5873 43.4933 60.6142 43.5914 60.6376 43.6941C60.6611 43.5914 60.6857 43.4933 60.7115 43.3999C60.7372 43.3065 60.7654 43.2201 60.7958 43.1407L62.2124 39.599C62.2264 39.5593 62.2534 39.5231 62.2932 39.4904C62.3354 39.4554 62.3858 39.4379 62.4443 39.4379H62.9892Z" fill="white"/>
<path d="M69.4304 43.9043L69.4269 44.4578H66.3232V39.4379H69.4269V39.9914H67.0051V41.6588H68.9665V42.1913H67.0051V43.9043H69.4304Z" fill="white"/>
<path d="M79.9635 42.5942L79.1726 40.5519C79.1492 40.4911 79.1246 40.4211 79.0988 40.3417C79.073 40.2599 79.0484 40.1735 79.025 40.0825C78.9758 40.2716 78.9254 40.4293 78.8738 40.5554L78.083 42.5942H79.9635ZM81.3835 44.4578H80.8563C80.7954 44.4578 80.7462 44.4426 80.7087 44.4123C80.6712 44.3819 80.643 44.3434 80.6243 44.2967L80.1533 43.0846H77.8932L77.4221 44.2967C77.4081 44.3387 77.3811 44.3761 77.3413 44.4088C77.3015 44.4415 77.2523 44.4578 77.1937 44.4578H76.6664L78.6805 39.4379H79.3695L81.3835 44.4578Z" fill="white"/>
<path d="M88.6786 42.0442V43.9709C88.4255 44.153 88.1548 44.2897 87.8666 44.3807C87.5807 44.4695 87.2667 44.5139 86.9246 44.5139C86.5192 44.5139 86.1536 44.452 85.8279 44.3282C85.5022 44.2021 85.2233 44.0269 84.9913 43.8027C84.7617 43.5762 84.5848 43.3053 84.4606 42.99C84.3364 42.6747 84.2743 42.3279 84.2743 41.9496C84.2743 41.5666 84.334 41.2175 84.4535 40.9022C84.5754 40.5869 84.7476 40.3172 84.9703 40.093C85.1929 39.8664 85.4635 39.6913 85.7822 39.5675C86.1009 39.4437 86.4571 39.3818 86.8508 39.3818C87.05 39.3818 87.2351 39.397 87.4061 39.4274C87.5772 39.4554 87.7354 39.4974 87.8807 39.5535C88.0259 39.6072 88.1607 39.6738 88.2849 39.7532C88.4091 39.8302 88.5251 39.9178 88.6329 40.0159L88.4395 40.3242C88.4091 40.3709 88.3692 40.4012 88.32 40.4152C88.2732 40.4269 88.2204 40.4152 88.1619 40.3802C88.1056 40.3475 88.0412 40.3078 87.9685 40.2611C87.8959 40.2144 87.8068 40.17 87.7014 40.128C87.5983 40.0836 87.4753 40.0463 87.3323 40.0159C87.1917 39.9855 87.0242 39.9704 86.8297 39.9704C86.5461 39.9704 86.2895 40.0171 86.0599 40.1105C85.8303 40.2016 85.6346 40.3335 85.4729 40.5063C85.3112 40.6768 85.187 40.8847 85.1003 41.1299C85.0136 41.3728 84.9703 41.646 84.9703 41.9496C84.9703 42.2649 85.0148 42.5475 85.1038 42.7974C85.1952 43.0449 85.3241 43.2563 85.4905 43.4314C85.6592 43.6042 85.8631 43.7362 86.1021 43.8273C86.3411 43.9183 86.6094 43.9639 86.907 43.9639C87.1413 43.9639 87.3487 43.9382 87.5292 43.8868C87.7119 43.8331 87.89 43.7595 88.0634 43.6661V42.5626H87.2796C87.2351 42.5626 87.1988 42.5498 87.1706 42.5241C87.1449 42.4984 87.132 42.4669 87.132 42.4295V42.0442H88.6786Z" fill="white"/>
<path d="M95.5009 43.9043L95.4974 44.4578H92.3937V39.4379H95.4974V39.9914H93.0756V41.6588H95.037V42.1913H93.0756V43.9043H95.5009Z" fill="white"/>
<path d="M103.203 39.4379V44.4578H102.862C102.808 44.4578 102.763 44.4485 102.725 44.4298C102.69 44.4111 102.655 44.3796 102.62 44.3352L99.7059 40.5519C99.7106 40.6103 99.7141 40.6675 99.7164 40.7235C99.7188 40.7796 99.72 40.8321 99.72 40.8812V44.4578H99.1224V39.4379H99.4739C99.5044 39.4379 99.5302 39.4402 99.5512 39.4449C99.5723 39.4472 99.5911 39.4531 99.6075 39.4624C99.6239 39.4694 99.6403 39.4811 99.6567 39.4974C99.6731 39.5115 99.6907 39.5301 99.7094 39.5535L102.623 43.3333C102.619 43.2726 102.614 43.2142 102.609 43.1582C102.607 43.0998 102.606 43.0449 102.606 42.9935V39.4379H103.203Z" fill="white"/>
<path d="M110.698 43.4209C110.736 43.4209 110.769 43.4361 110.797 43.4664L111.068 43.7572C110.861 43.9954 110.611 44.1811 110.315 44.3142C110.022 44.4473 109.667 44.5139 109.25 44.5139C108.889 44.5139 108.561 44.452 108.266 44.3282C107.971 44.2021 107.719 44.0269 107.51 43.8027C107.302 43.5762 107.14 43.3053 107.025 42.99C106.91 42.6747 106.853 42.3279 106.853 41.9496C106.853 41.5713 106.913 41.2245 107.032 40.9092C107.152 40.5939 107.319 40.323 107.535 40.0965C107.753 39.8699 108.013 39.6948 108.315 39.571C108.618 39.4449 108.952 39.3818 109.317 39.3818C109.676 39.3818 109.992 39.4391 110.266 39.5535C110.54 39.6679 110.782 39.8232 110.99 40.0194L110.765 40.3312C110.751 40.3545 110.732 40.3744 110.709 40.3907C110.688 40.4047 110.659 40.4117 110.621 40.4117C110.579 40.4117 110.527 40.3896 110.466 40.3452C110.406 40.2985 110.326 40.2471 110.227 40.1911C110.129 40.135 110.006 40.0848 109.858 40.0404C109.711 39.9937 109.529 39.9704 109.314 39.9704C109.053 39.9704 108.816 40.0159 108.6 40.107C108.384 40.1957 108.198 40.3253 108.041 40.4958C107.886 40.6663 107.766 40.8742 107.679 41.1194C107.592 41.3646 107.549 41.6413 107.549 41.9496C107.549 42.2625 107.594 42.5416 107.683 42.7868C107.774 43.0321 107.897 43.2399 108.052 43.4104C108.209 43.5785 108.393 43.707 108.604 43.7957C108.817 43.8845 109.046 43.9288 109.292 43.9288C109.442 43.9288 109.577 43.9207 109.697 43.9043C109.819 43.8856 109.93 43.8576 110.031 43.8203C110.134 43.7829 110.229 43.7362 110.315 43.6801C110.404 43.6217 110.492 43.5529 110.579 43.4734C110.619 43.4384 110.659 43.4209 110.698 43.4209Z" fill="white"/>
<path d="M116.421 42.4576V44.4578H115.739V42.4576L113.893 39.4379H114.491C114.552 39.4379 114.6 39.4531 114.635 39.4834C114.67 39.5115 114.701 39.5488 114.726 39.5955L115.879 41.5467C115.922 41.6285 115.96 41.7056 115.995 41.778C116.03 41.848 116.061 41.9192 116.087 41.9916C116.113 41.9192 116.142 41.848 116.175 41.778C116.207 41.7056 116.244 41.6285 116.284 41.5467L117.433 39.5955C117.454 39.5558 117.483 39.5196 117.521 39.4869C117.558 39.4542 117.606 39.4379 117.665 39.4379H118.266L116.421 42.4576Z" fill="white"/>
</svg>
