<svg width="138" height="45" viewBox="0 0 138 45" fill="none" xmlns="http://www.w3.org/2000/svg">
<path d="M66.9869 12.4587C66.3321 11.7511 65.5781 11.1381 64.7474 10.6383C64.7896 10.5623 64.8302 10.4882 64.87 10.4156C65.4196 9.41276 65.8024 8.71448 67.6791 7.81578C69.4827 6.95209 69.865 5.81928 70.3863 4.27434C70.4467 4.0954 70.509 3.91093 70.5755 3.7207C71.3605 4.86352 71.9495 7.14914 71.9495 8.95859C71.8761 9.00069 71.8028 9.04268 71.7295 9.08462L71.7279 9.08557C70.1012 10.0169 68.5187 10.923 66.9869 12.4587Z" fill="white"/>
<path fill-rule="evenodd" clip-rule="evenodd" d="M62.3797 26.1952C62.2328 26.066 62.0891 25.931 61.9489 25.7901C61.8497 25.6289 61.791 25.4418 61.7803 25.2403C61.7658 24.9678 61.9821 24.4629 62.183 24.3C62.359 24.1573 62.6503 24.0389 62.8628 24.0236L63.0283 24.0117L64.3523 20.9118C65.0804 19.2069 65.6709 17.8096 65.6644 17.8069C65.6578 17.8041 64.4687 18.5939 63.0219 19.562C61.386 20.6567 60.3702 21.3585 60.3356 21.4181C60.3112 21.4601 60.2094 22.0147 60.0821 22.7876C59.7897 21.8364 59.5884 20.7992 59.3921 19.7869C59.2191 18.8948 59.0011 18.0625 58.7003 17.3237C59.2817 16.6144 59.9931 16.0551 60.86 15.6204C62.0184 15.0396 63.541 14.824 64.8174 15.0599L65.096 15.1135L65.0809 15.2096C64.9658 15.938 65.2633 16.6764 65.8517 17.1233C65.9827 17.2228 66.1281 17.3078 66.2866 17.375C66.4513 17.4449 66.62 17.4913 66.7891 17.5158C67.5125 17.6204 68.2633 17.3386 68.7066 16.7583L68.7742 16.6745C68.8014 16.6972 68.8921 16.7643 68.976 16.8236C69.3446 17.0845 69.7586 17.4733 70.1033 17.8819C71.5858 19.6396 72.0054 21.9827 71.238 24.2184C71.0467 24.7756 71.04 24.8742 71.1819 25.0386C71.2412 25.1074 71.2857 25.1278 71.4045 25.1409C71.6955 25.1728 71.8291 24.9876 72.0657 24.2246C72.2531 23.6202 72.3595 23 72.3875 22.3802C75.3988 25.5061 78.7698 25.4769 81.0309 24.9251C77.0769 27.7342 70.2608 29.8121 65.1881 27.875C65.0069 27.796 64.9912 27.7772 65.0246 27.7364C65.4406 27.2265 67.455 24.5257 67.4774 24.4477C67.4964 24.3818 67.3012 23.1706 66.9645 21.2644C66.6655 19.5721 66.4134 18.1673 66.4043 18.1426C66.3944 18.116 65.849 19.3591 65.0619 21.2019L63.7361 24.306L63.8723 24.4839C64.3876 25.1568 64.011 26.1595 63.1826 26.3201C62.8776 26.3792 62.7081 26.3568 62.4289 26.2206C62.4122 26.2125 62.3958 26.204 62.3797 26.1952ZM62.5848 25.0533C62.6444 24.9178 62.7615 24.8204 62.8777 24.8097C62.9719 24.8011 63.1471 24.8718 63.249 24.9597C63.3296 25.0292 63.3472 25.2167 63.2865 25.3589C63.2192 25.5163 62.956 25.6148 62.7904 25.5446C62.6201 25.4723 62.5131 25.2166 62.5848 25.0533Z" fill="white"/>
<path d="M72.3493 21.2289C77.9515 16.7528 77.7454 11.5305 76.8931 6.50084C75.8355 7.68102 74.2818 8.57242 72.6556 9.50545L72.6428 9.51277C72.5537 9.56384 72.4641 9.61512 72.374 9.66667L72.373 9.66721C70.5698 10.6987 68.5827 11.8355 66.997 13.509C67.1406 13.5032 67.2858 13.5126 67.4305 13.5383C67.5783 13.5645 67.7255 13.6077 67.8696 13.6688C68.0128 13.7295 68.1453 13.8048 68.2662 13.8922C68.8661 14.3257 69.1787 15.0564 69.0826 15.784L69.0556 15.9413L72.5623 17.429C72.8137 17.1913 73.1922 17.111 73.5314 17.2549C73.9872 17.4482 74.1995 17.9731 74.0055 18.4273C73.8115 18.8815 73.2848 19.0929 72.829 18.8996C72.5111 18.7647 72.3117 18.4686 72.2859 18.1477L71.612 17.8618C71.1977 17.686 70.8626 17.5505 70.8674 17.5606C70.8722 17.5706 70.9676 17.7085 71.0794 17.8668C71.7854 18.8662 72.215 20.0275 72.3493 21.2289Z" fill="white"/>
<path fill-rule="evenodd" clip-rule="evenodd" d="M66.8226 13.5236L66.3991 13.0883C65.6903 12.3032 64.846 11.6464 63.905 11.148C61.5134 9.92539 58.9458 10.3994 57.204 12.3859C57.1528 12.4441 57.0864 12.4877 57.012 12.512C56.9375 12.5363 56.8578 12.5403 56.7811 12.5237C56.2994 12.4194 55.015 12.6251 54.2297 14.0536C56.3022 14.1684 57.5438 15.1137 58.3351 16.5519C59.2933 15.5048 60.5465 14.7528 61.9713 14.396C62.214 14.3352 62.536 14.2719 62.6868 14.2552C62.8377 14.2386 62.9638 14.2187 62.9671 14.211C62.9704 14.2033 62.6442 14.0575 62.2421 13.887L61.5622 13.5986C61.3123 13.8025 60.9599 13.8646 60.642 13.7297C60.1862 13.5364 59.974 13.0115 60.1679 12.5573C60.3619 12.1031 60.8887 11.8917 61.3445 12.085C61.6837 12.2289 61.888 12.5564 61.8903 12.9018L65.404 14.3923L65.4677 14.3039C65.7991 13.8681 66.2919 13.5915 66.8226 13.5236Z" fill="white"/>
<path d="M82.7235 1.54258C81.743 0.56436 80.4232 0 78.9526 0H73.8619V2.03169H78.9149C79.8199 2.03169 80.6495 2.40793 81.2528 3.00992C81.8562 3.6119 82.2333 4.43963 82.2333 5.3426V10.7228H84.2695V5.30498C84.2695 3.83765 83.6662 2.52081 82.7235 1.54258Z" fill="white"/>
<path d="M54.7059 29.4225C54.1026 28.8206 53.7255 27.9928 53.7255 27.0899V21.7472H51.6892V27.1275C51.6892 28.5948 52.2925 29.9117 53.2353 30.8899C54.2534 31.8305 55.5732 32.4325 57.0438 32.4325H62.0968V30.4008H57.0438C56.1388 30.4008 55.3092 30.0245 54.7059 29.4225Z" fill="white"/>
<path d="M82.1955 27.1275C82.1955 28.0305 81.8185 28.8582 81.2151 29.4602C80.6118 30.0621 79.7822 30.4384 78.8772 30.4384H73.8619V32.4701H78.9149C80.3855 32.4701 81.7053 31.8681 82.6858 30.9275C83.6662 29.9493 84.2318 28.6324 84.2318 27.1651V21.7472H82.1955V27.1275Z" fill="white"/>
<path d="M53.273 1.54258C52.2925 2.52081 51.7269 3.83765 51.7269 5.30498V10.6852H53.7632V5.30498C53.7632 4.40201 54.1403 3.57428 54.7436 2.97229C55.347 2.37031 56.1765 1.99407 57.0816 1.99407H62.1345V0H57.0438C55.5732 0 54.2534 0.601984 53.273 1.54258Z" fill="white"/>
<path d="M5.4118 23.8242C5.40076 23.8903 5.38142 23.9371 5.35381 23.9646C5.32619 23.9921 5.05552 24.0527 4.54182 24.1463C4.02811 24.2399 3.50888 24.2866 2.98412 24.2866C2.12242 24.2866 1.46234 24.0086 1.00387 23.4526C0.545397 22.8966 0.316162 22.1397 0.316162 21.1818C0.316162 19.4807 0.52054 17.5044 0.929296 15.2529C1.14472 14.0418 1.40986 13.1912 1.72471 12.7013C2.05614 12.1893 2.45385 11.8315 2.91784 11.6278C3.49783 11.3746 4.11649 11.248 4.77381 11.248C5.43666 11.248 5.87856 11.2672 6.09951 11.3058C6.32598 11.3388 6.45303 11.3581 6.48065 11.3636C6.55246 11.3856 6.58836 11.4544 6.58836 11.57L6.39779 13.1059C6.3757 13.249 6.32046 13.3206 6.23208 13.3206C6.1437 13.3206 5.93932 13.2986 5.61894 13.2545C5.29857 13.205 5.03895 13.1802 4.8401 13.1802C4.30982 13.1802 3.90659 13.3151 3.6304 13.5848C3.35421 13.8491 3.14707 14.3611 3.00898 15.1208C2.87641 15.8749 2.7466 16.8906 2.61956 18.1678C2.49251 19.4395 2.42899 20.4139 2.42899 21.091C2.42899 21.8892 2.78251 22.2883 3.48955 22.2883C3.69392 22.2883 4.0502 22.2553 4.55839 22.1892C5.06657 22.1177 5.35657 22.0819 5.42838 22.0819C5.54437 22.0819 5.60237 22.1507 5.60237 22.2883L5.4118 23.8242Z" fill="white"/>
<path d="M13.8001 11.5287L12.6153 22.0241L15.7887 21.9002C15.9323 21.9057 16.0041 21.9773 16.0041 22.1149L15.7887 23.8242C15.7721 23.9674 15.7003 24.0417 15.5733 24.0472L10.4693 24.2288C10.3533 24.2288 10.2953 24.1765 10.2953 24.072L11.7122 11.5783C11.7232 11.5122 11.7398 11.4654 11.7619 11.4379C11.7895 11.4104 11.842 11.3938 11.9193 11.3883L13.5847 11.3305C13.7283 11.336 13.8001 11.4021 13.8001 11.5287Z" fill="white"/>
<path d="M24.1273 11.5287L22.7105 23.9646C22.6939 24.0967 22.6221 24.1655 22.495 24.171L20.7882 24.2288C20.6667 24.2288 20.6059 24.1765 20.6059 24.072L22.0393 11.5783C22.0614 11.4627 22.1332 11.3993 22.2548 11.3883L23.9119 11.3305C24.0555 11.336 24.1273 11.4021 24.1273 11.5287Z" fill="white"/>
<path d="M36.1033 11.4957L34.6782 23.9316C34.6561 24.0582 34.5843 24.127 34.4628 24.138L32.8222 24.2288C32.7283 24.2288 32.6731 24.1765 32.6565 24.072L30.9165 15.2529L30.3034 23.9646C30.2979 24.0967 30.2261 24.1655 30.088 24.171L28.3811 24.2288C28.2596 24.2288 28.1989 24.1765 28.1989 24.072L29.6323 11.5783C29.6544 11.4627 29.7262 11.3993 29.8477 11.3883L31.5297 11.2975C31.607 11.2975 31.6567 11.314 31.6788 11.3471C31.7064 11.3746 31.7285 11.4241 31.7451 11.4957L33.4271 19.8276L34.0071 11.5783C34.0126 11.4572 34.0872 11.3938 34.2308 11.3883L35.8796 11.2975C36.0287 11.2975 36.1033 11.3636 36.1033 11.4957Z" fill="white"/>
<path d="M40.9454 11.4214L46.3145 11.2314C46.4415 11.237 46.5051 11.3058 46.5051 11.4379L46.2896 13.1307C46.2786 13.2133 46.2592 13.2711 46.2316 13.3041C46.2095 13.3371 46.1598 13.3564 46.0825 13.3619L44.4751 13.4197L43.2654 23.9646C43.2488 24.0967 43.177 24.1655 43.05 24.171L41.3266 24.2288C41.2161 24.2288 41.1608 24.1765 41.1608 24.072L42.3788 13.4858L40.73 13.5353C40.5919 13.5298 40.5229 13.4665 40.5229 13.3454L40.73 11.6278C40.7355 11.4957 40.8073 11.4269 40.9454 11.4214Z" fill="white"/>
<path d="M89.6608 24.3527C89.5227 24.3527 89.4537 24.2867 89.4537 24.1545L89.6608 22.4287C89.6829 22.3076 89.7547 22.2415 89.8762 22.2305C90.7379 22.1424 91.3069 22.0076 91.5831 21.8259C91.8593 21.6387 91.9973 21.2699 91.9973 20.7194C91.9973 20.1689 91.8565 19.4532 91.5748 18.5724C91.2931 17.6861 91.1108 17.0971 91.0279 16.8053C90.7628 15.8694 90.6302 15.1042 90.6302 14.5097C90.6302 13.9097 90.7269 13.3977 90.9202 12.9738C91.1136 12.5499 91.3897 12.2113 91.7488 11.9581C92.4448 11.4737 93.381 11.2314 94.5576 11.2314C94.7067 11.2314 94.7813 11.3003 94.7813 11.4379L94.5576 13.1472C94.5355 13.2848 94.4665 13.3591 94.3505 13.3702C93.2789 13.4417 92.7431 13.7583 92.7431 14.3198C92.7431 14.8373 92.9695 15.8557 93.4225 17.3751C93.8809 18.889 94.1102 19.9735 94.1102 20.6286C94.1102 23.1113 92.6271 24.3527 89.6608 24.3527Z" fill="white"/>
<path d="M105.838 16.5245C105.363 18.3577 103.877 19.2771 101.38 19.2826L100.858 23.9646C100.841 24.0967 100.772 24.1656 100.651 24.1711L98.9108 24.2619C98.7893 24.2509 98.7286 24.1986 98.7286 24.105L100.162 11.6113C100.184 11.4957 100.256 11.4324 100.377 11.4214C101.41 11.3278 102.396 11.281 103.335 11.281C105.202 11.281 106.136 12.1728 106.136 13.9564C106.136 14.9308 106.036 15.7869 105.838 16.5245ZM102.059 13.205L101.587 17.3751C102.543 17.3751 103.186 17.1769 103.518 16.7805C103.849 16.3842 104.015 15.6135 104.015 14.4684C104.015 14.028 103.896 13.7032 103.658 13.494C103.421 13.2848 103.117 13.1802 102.747 13.1802C102.377 13.1802 102.148 13.1885 102.059 13.205Z" fill="white"/>
<path d="M115.386 11.5535L116.355 23.9894C116.355 24.116 116.284 24.1848 116.14 24.1958L114.408 24.2619C114.292 24.2619 114.234 24.2096 114.234 24.105L114.11 21.38L112.229 21.4543L111.608 23.9976C111.591 24.0747 111.569 24.127 111.541 24.1545C111.514 24.1821 111.464 24.1986 111.392 24.2041L109.677 24.2619C109.567 24.2619 109.511 24.2096 109.511 24.105L113.149 11.6113C113.187 11.4902 113.262 11.4269 113.373 11.4214L115.195 11.3553C115.311 11.3608 115.375 11.4269 115.386 11.5535ZM113.82 14.9556L112.66 19.6955L114.035 19.6459L113.82 14.9556Z" fill="white"/>
<path d="M126.467 23.8573C126.456 23.9233 126.437 23.9701 126.409 23.9976C126.381 24.0252 126.111 24.0857 125.597 24.1793C125.083 24.2729 124.564 24.3197 124.039 24.3197C123.178 24.3197 122.518 24.0417 122.059 23.4857C121.601 22.9297 121.371 22.1727 121.371 21.2148C121.371 19.5138 121.576 17.5375 121.985 15.2859C122.2 14.0748 122.465 13.2243 122.78 12.7343C123.111 12.2224 123.509 11.8645 123.973 11.6608C124.553 11.4076 125.172 11.281 125.829 11.281C126.492 11.281 126.934 11.3003 127.155 11.3388C127.381 11.3718 127.508 11.3911 127.536 11.3966C127.608 11.4186 127.644 11.4874 127.644 11.603L127.453 13.1389C127.431 13.2821 127.376 13.3536 127.287 13.3536C127.199 13.3536 126.995 13.3316 126.674 13.2876C126.354 13.238 126.094 13.2133 125.895 13.2133C125.365 13.2133 124.962 13.3481 124.686 13.6179C124.409 13.8821 124.202 14.3941 124.064 15.1538C123.932 15.908 123.802 16.9237 123.675 18.2008C123.548 19.4725 123.484 20.4469 123.484 21.124C123.484 21.9222 123.838 22.3214 124.545 22.3214C124.749 22.3214 125.105 22.2883 125.614 22.2223C126.122 22.1507 126.412 22.1149 126.484 22.1149C126.6 22.1149 126.658 22.1837 126.658 22.3214L126.467 23.8573Z" fill="white"/>
<path d="M136.637 18.5807L134.06 18.6798L133.671 22.0654L136.844 21.958C136.988 21.9635 137.059 22.0351 137.059 22.1727L136.844 23.882C136.833 23.9976 136.761 24.0692 136.628 24.0967L131.533 24.2619C131.411 24.2619 131.351 24.2096 131.351 24.105L132.784 11.6113C132.806 11.4957 132.878 11.4324 132.999 11.4214L137.54 11.2645C137.678 11.281 137.747 11.3553 137.747 11.4874L137.54 13.1967C137.523 13.3344 137.452 13.4087 137.324 13.4197L134.657 13.494L134.3 16.5658L136.852 16.475C136.996 16.4805 137.068 16.5521 137.068 16.6897L136.852 18.3742C136.83 18.5009 136.758 18.5697 136.637 18.5807Z" fill="white"/>
<path d="M23.1705 43.4209C23.208 43.4209 23.2408 43.4361 23.2689 43.4664L23.5395 43.7572C23.3333 43.9954 23.0826 44.1811 22.7873 44.3142C22.4944 44.4473 22.1394 44.5139 21.7223 44.5139C21.3614 44.5139 21.0334 44.452 20.7381 44.3282C20.4428 44.2021 20.1909 44.0269 19.9824 43.8027C19.7738 43.5762 19.6121 43.3053 19.4973 42.99C19.3825 42.6747 19.3251 42.3279 19.3251 41.9496C19.3251 41.5713 19.3848 41.2245 19.5043 40.9092C19.6238 40.5939 19.7914 40.323 20.007 40.0965C20.2249 39.8699 20.485 39.6948 20.7873 39.571C21.0896 39.4449 21.4235 39.3818 21.7891 39.3818C22.1476 39.3818 22.464 39.4391 22.7381 39.5535C23.0123 39.6679 23.2537 39.8232 23.4622 40.0194L23.2373 40.3312C23.2232 40.3545 23.2044 40.3744 23.181 40.3907C23.1599 40.4047 23.1306 40.4117 23.0931 40.4117C23.051 40.4117 22.9994 40.3896 22.9385 40.3452C22.8776 40.2985 22.7979 40.2471 22.6995 40.1911C22.601 40.135 22.478 40.0848 22.3304 40.0404C22.1828 39.9937 22.0012 39.9704 21.7856 39.9704C21.5255 39.9704 21.2876 40.0159 21.072 40.107C20.8564 40.1957 20.6701 40.3253 20.5131 40.4958C20.3585 40.6663 20.2378 40.8742 20.1511 41.1194C20.0644 41.3646 20.021 41.6413 20.021 41.9496C20.021 42.2625 20.0656 42.5416 20.1546 42.7868C20.246 43.0321 20.369 43.2399 20.5237 43.4104C20.6807 43.5785 20.8646 43.707 21.0755 43.7957C21.2888 43.8845 21.5184 43.9288 21.7645 43.9288C21.9144 43.9288 22.0492 43.9207 22.1687 43.9043C22.2906 43.8856 22.4019 43.8576 22.5026 43.8203C22.6057 43.7829 22.7006 43.7362 22.7873 43.6801C22.8764 43.6217 22.9643 43.5529 23.051 43.4734C23.0908 43.4384 23.1306 43.4209 23.1705 43.4209Z" fill="white"/>
<path d="M28.397 41.869C28.5939 41.869 28.7673 41.8457 28.9173 41.799C29.0696 41.7499 29.1961 41.6822 29.2969 41.5958C29.4 41.507 29.4773 41.402 29.5289 41.2805C29.5804 41.1591 29.6062 41.0248 29.6062 40.8777C29.6062 40.5787 29.5078 40.3534 29.3109 40.2016C29.1141 40.0498 28.8188 39.9739 28.4252 39.9739H27.68V41.869H28.397ZM30.724 44.4578H30.1194C29.9952 44.4578 29.9038 44.4099 29.8452 44.3142L28.5376 42.5206C28.4978 42.4646 28.4544 42.4249 28.4076 42.4015C28.3631 42.3758 28.2928 42.363 28.1967 42.363H27.68V44.4578H27.0016V39.4379H28.4252C28.7438 39.4379 29.0192 39.4706 29.2512 39.536C29.4832 39.599 29.6741 39.6913 29.8241 39.8127C29.9764 39.9342 30.0889 40.0813 30.1616 40.2541C30.2342 40.4246 30.2705 40.6161 30.2705 40.8286C30.2705 41.0061 30.2424 41.1719 30.1862 41.3261C30.1299 41.4802 30.0479 41.6191 29.9401 41.7429C29.8347 41.8644 29.7046 41.9683 29.55 42.0547C29.3976 42.1411 29.2242 42.2065 29.0297 42.2509C29.1164 42.2999 29.1914 42.3711 29.2547 42.4646L30.724 44.4578Z" fill="white"/>
<path d="M37.1877 43.9043L37.1842 44.4578H34.0804V39.4379H37.1842V39.9914H34.7623V41.6588H36.7237V42.1913H34.7623V43.9043H37.1877Z" fill="white"/>
<path d="M43.4841 42.5942L42.6932 40.5519C42.6698 40.4911 42.6452 40.4211 42.6194 40.3417C42.5936 40.2599 42.569 40.1735 42.5456 40.0825C42.4964 40.2716 42.446 40.4293 42.3944 40.5554L41.6036 42.5942H43.4841ZM44.9041 44.4578H44.3769C44.316 44.4578 44.2667 44.4426 44.2293 44.4123C44.1918 44.3819 44.1636 44.3434 44.1449 44.2967L43.6739 43.0846H41.4137L40.9427 44.2967C40.9287 44.3387 40.9017 44.3761 40.8619 44.4088C40.8221 44.4415 40.7728 44.4578 40.7143 44.4578H40.187L42.2011 39.4379H42.89L44.9041 44.4578Z" fill="white"/>
<path d="M51.1499 40.0089H49.5189V44.4578H48.8405V40.0089H47.2061V39.4379H51.1499V40.0089Z" fill="white"/>
<path d="M55.2506 44.4578H54.5687V39.4379H55.2506V44.4578Z" fill="white"/>
<path d="M63.3054 39.4379L61.2526 44.4578H60.641L58.5882 39.4379H59.1331C59.194 39.4379 59.2432 39.4531 59.2807 39.4834C59.3182 39.5138 59.3463 39.5523 59.3651 39.599L60.7851 43.1407C60.8156 43.2201 60.8449 43.3065 60.873 43.3999C60.9035 43.4933 60.9304 43.5914 60.9538 43.6941C60.9773 43.5914 61.0019 43.4933 61.0276 43.3999C61.0534 43.3065 61.0815 43.2201 61.112 43.1407L62.5285 39.599C62.5426 39.5593 62.5696 39.5231 62.6094 39.4904C62.6516 39.4554 62.702 39.4379 62.7605 39.4379H63.3054Z" fill="white"/>
<path d="M69.7466 43.9043L69.7431 44.4578H66.6394V39.4379H69.7431V39.9914H67.3213V41.6588H69.2827V42.1913H67.3213V43.9043H69.7466Z" fill="white"/>
<path d="M80.2797 42.5942L79.4888 40.5519C79.4654 40.4911 79.4408 40.4211 79.415 40.3417C79.3892 40.2599 79.3646 40.1735 79.3412 40.0825C79.292 40.2716 79.2416 40.4293 79.19 40.5554L78.3992 42.5942H80.2797ZM81.6997 44.4578H81.1725C81.1116 44.4578 81.0624 44.4426 81.0249 44.4123C80.9874 44.3819 80.9592 44.3434 80.9405 44.2967L80.4695 43.0846H78.2094L77.7383 44.2967C77.7243 44.3387 77.6973 44.3761 77.6575 44.4088C77.6177 44.4415 77.5685 44.4578 77.5099 44.4578H76.9826L78.9967 39.4379H79.6856L81.6997 44.4578Z" fill="white"/>
<path d="M88.9948 42.0442V43.9709C88.7417 44.153 88.471 44.2897 88.1828 44.3807C87.8969 44.4695 87.5829 44.5139 87.2408 44.5139C86.8354 44.5139 86.4698 44.452 86.1441 44.3282C85.8184 44.2021 85.5395 44.0269 85.3075 43.8027C85.0779 43.5762 84.901 43.3053 84.7768 42.99C84.6526 42.6747 84.5905 42.3279 84.5905 41.9496C84.5905 41.5666 84.6502 41.2175 84.7697 40.9022C84.8916 40.5869 85.0638 40.3172 85.2864 40.093C85.5091 39.8664 85.7797 39.6913 86.0984 39.5675C86.4171 39.4437 86.7733 39.3818 87.167 39.3818C87.3661 39.3818 87.5513 39.397 87.7223 39.4274C87.8934 39.4554 88.0516 39.4974 88.1969 39.5535C88.3421 39.6072 88.4769 39.6738 88.6011 39.7532C88.7253 39.8302 88.8413 39.9178 88.9491 40.0159L88.7557 40.3242C88.7253 40.3709 88.6854 40.4012 88.6362 40.4152C88.5894 40.4269 88.5366 40.4152 88.4781 40.3802C88.4218 40.3475 88.3574 40.3078 88.2847 40.2611C88.2121 40.2144 88.123 40.17 88.0176 40.128C87.9145 40.0836 87.7915 40.0463 87.6485 40.0159C87.5079 39.9855 87.3404 39.9704 87.1459 39.9704C86.8623 39.9704 86.6057 40.0171 86.3761 40.1105C86.1464 40.2016 85.9508 40.3335 85.7891 40.5063C85.6274 40.6768 85.5032 40.8847 85.4165 41.1299C85.3298 41.3728 85.2864 41.646 85.2864 41.9496C85.2864 42.2649 85.331 42.5475 85.42 42.7974C85.5114 43.0449 85.6403 43.2563 85.8067 43.4314C85.9754 43.6042 86.1793 43.7362 86.4183 43.8273C86.6573 43.9183 86.9256 43.9639 87.2232 43.9639C87.4575 43.9639 87.6649 43.9382 87.8454 43.8868C88.0281 43.8331 88.2062 43.7595 88.3796 43.6661V42.5626H87.5958C87.5513 42.5626 87.515 42.5498 87.4868 42.5241C87.4611 42.4984 87.4482 42.4669 87.4482 42.4295V42.0442H88.9948Z" fill="white"/>
<path d="M95.8171 43.9043L95.8136 44.4578H92.7099V39.4379H95.8136V39.9914H93.3918V41.6588H95.3531V42.1913H93.3918V43.9043H95.8171Z" fill="white"/>
<path d="M103.52 39.4379V44.4578H103.179C103.125 44.4578 103.079 44.4485 103.041 44.4298C103.006 44.4111 102.971 44.3796 102.936 44.3352L100.022 40.5519C100.027 40.6103 100.03 40.6675 100.033 40.7235C100.035 40.7796 100.036 40.8321 100.036 40.8812V44.4578H99.4386V39.4379H99.7901C99.8206 39.4379 99.8463 39.4402 99.8674 39.4449C99.8885 39.4472 99.9073 39.4531 99.9237 39.4624C99.9401 39.4694 99.9565 39.4811 99.9729 39.4974C99.9893 39.5115 100.007 39.5301 100.026 39.5535L102.94 43.3333C102.935 43.2726 102.93 43.2142 102.925 43.1582C102.923 43.0998 102.922 43.0449 102.922 42.9935V39.4379H103.52Z" fill="white"/>
<path d="M111.015 43.4209C111.052 43.4209 111.085 43.4361 111.113 43.4664L111.384 43.7572C111.178 43.9954 110.927 44.1811 110.632 44.3142C110.339 44.4473 109.984 44.5139 109.566 44.5139C109.206 44.5139 108.878 44.452 108.582 44.3282C108.287 44.2021 108.035 44.0269 107.827 43.8027C107.618 43.5762 107.456 43.3053 107.342 42.99C107.227 42.6747 107.169 42.3279 107.169 41.9496C107.169 41.5713 107.229 41.2245 107.349 40.9092C107.468 40.5939 107.636 40.323 107.851 40.0965C108.069 39.8699 108.329 39.6948 108.632 39.571C108.934 39.4449 109.268 39.3818 109.633 39.3818C109.992 39.3818 110.308 39.4391 110.582 39.5535C110.856 39.6679 111.098 39.8232 111.306 40.0194L111.081 40.3312C111.067 40.3545 111.049 40.3744 111.025 40.3907C111.004 40.4047 110.975 40.4117 110.937 40.4117C110.895 40.4117 110.844 40.3896 110.783 40.3452C110.722 40.2985 110.642 40.2471 110.544 40.1911C110.445 40.135 110.322 40.0848 110.175 40.0404C110.027 39.9937 109.845 39.9704 109.63 39.9704C109.37 39.9704 109.132 40.0159 108.916 40.107C108.701 40.1957 108.514 40.3253 108.357 40.4958C108.203 40.6663 108.082 40.8742 107.995 41.1194C107.909 41.3646 107.865 41.6413 107.865 41.9496C107.865 42.2625 107.91 42.5416 107.999 42.7868C108.09 43.0321 108.213 43.2399 108.368 43.4104C108.525 43.5785 108.709 43.707 108.92 43.7957C109.133 43.8845 109.363 43.9288 109.609 43.9288C109.759 43.9288 109.893 43.9207 110.013 43.9043C110.135 43.8856 110.246 43.8576 110.347 43.8203C110.45 43.7829 110.545 43.7362 110.632 43.6801C110.721 43.6217 110.808 43.5529 110.895 43.4734C110.935 43.4384 110.975 43.4209 111.015 43.4209Z" fill="white"/>
<path d="M116.737 42.4576V44.4578H116.055V42.4576L114.21 39.4379H114.807C114.868 39.4379 114.916 39.4531 114.951 39.4834C114.986 39.5115 115.017 39.5488 115.043 39.5955L116.196 41.5467C116.238 41.6285 116.276 41.7056 116.312 41.778C116.347 41.848 116.377 41.9192 116.403 41.9916C116.429 41.9192 116.458 41.848 116.491 41.778C116.524 41.7056 116.56 41.6285 116.6 41.5467L117.749 39.5955C117.77 39.5558 117.8 39.5196 117.837 39.4869C117.875 39.4542 117.923 39.4379 117.981 39.4379H118.582L116.737 42.4576Z" fill="white"/>
</svg>
